# xmcd CD database file
#
# Track frame offsets:
#	150
#	35729
#	82955
#	119575
#	154408
#	185309
#	218242
#	251740
#	288751
#
# Disc length: 4402 seconds
#
# Revision: 1
# Processed by: cddbd v1.5.1PL0 Copyright (c) Steve Scherf et al.
# Submitted via: CDex 1.51
#
DISCID=7f113009
DTITLE=Lungau Big Band - The Monk's Progress
DYEAR=2005
DGENRE=Jazz
TTITLE0=Modification
TTITLE1=The Monk's Passion
TTITLE2=El Monasterio Del Sur
TTITLE3=Die Lebenslange Sehnsucht Nach Isolation
TTITLE4=Monksmountain
TTITLE5=Dancing Monkl
TTITLE6=Everyone's Garden
TTITLE7=Peace Of Mind
TTITLE8=The Maze
EXTD=YEAR: 2005
EXTT0=
EXTT1=
EXTT2=
EXTT3=
EXTT4=
EXTT5=
EXTT6=
EXTT7=
EXTT8=
PLAYORDER=
